<svg width="219" height="37" viewBox="0 0 219 37" fill="none" xmlns="http://www.w3.org/2000/svg">
<path d="M14.6 14.12C18.0667 14.3867 20.6133 15.1867 22.24 16.52C23.8667 17.8533 24.68 19.4267 24.68 21.24C24.68 23.72 23.7067 25.64 21.76 27C19.8133 28.3333 17.1067 29 13.64 29C12.8667 29 12.2133 28.9867 11.68 28.96C9.92 28.9067 8.2 28.88 6.52 28.88C3.77333 28.88 1.72 28.92 0.36 29V28.2C1.24 28.1467 1.88 28.04 2.28 27.88C2.70667 27.72 2.98667 27.4133 3.12 26.96C3.28 26.5067 3.36 25.7733 3.36 24.76V4.92C3.36 3.90666 3.28 3.17333 3.12 2.72C2.98667 2.26667 2.70667 1.96 2.28 1.8C1.88 1.64 1.24 1.53333 0.36 1.48V0.68C1.72 0.759999 3.74667 0.799998 6.44 0.799998L10.88 0.759999C11.4133 0.733332 12.0267 0.719999 12.72 0.719999C15.92 0.719999 18.36 1.29333 20.04 2.44C21.7467 3.58666 22.6 5.10667 22.6 7C22.6 8.54667 21.92 9.98667 20.56 11.32C19.2267 12.6533 17.24 13.56 14.6 14.04V14.12ZM12.2 1.48C11.48 1.48 10.9467 1.57333 10.6 1.76C10.28 1.94667 10.0533 2.28 9.92 2.76C9.78667 3.24 9.72 3.96 9.72 4.92V13.96H11.44C13.1733 13.96 14.3867 13.3733 15.08 12.2C15.7733 11 16.12 9.41333 16.12 7.44C16.12 5.44 15.8 3.94667 15.16 2.96C14.5467 1.97333 13.56 1.48 12.2 1.48ZM12.48 28.08C16.1867 28.08 18.04 25.7467 18.04 21.08C18.04 18.9733 17.5067 17.3733 16.44 16.28C15.3733 15.1867 13.6933 14.64 11.4 14.64H9.72V24.76C9.72 25.72 9.78667 26.4267 9.92 26.88C10.0533 27.3333 10.3067 27.6533 10.68 27.84C11.08 28 11.68 28.08 12.48 28.08ZM38.595 26.28C40.7817 26.28 42.5417 25.2133 43.875 23.08L44.595 23.32C44.0617 25.0533 43.1017 26.5333 41.715 27.76C40.355 28.96 38.6483 29.56 36.595 29.56C33.7683 29.56 31.515 28.6667 29.835 26.88C28.1817 25.0667 27.355 22.4 27.355 18.88C27.355 15.28 28.2483 12.5333 30.035 10.64C31.8217 8.72 34.195 7.76 37.155 7.76C42.1683 7.76 44.675 10.72 44.675 16.64H33.435C33.4083 17.04 33.395 17.6667 33.395 18.52C33.395 20.28 33.635 21.7467 34.115 22.92C34.6217 24.0933 35.2617 24.9467 36.035 25.48C36.835 26.0133 37.6883 26.28 38.595 26.28ZM36.915 8.6C35.955 8.6 35.155 9.2 34.515 10.4C33.9017 11.5733 33.515 13.4 33.355 15.88H39.635C39.6883 13.7733 39.475 12.04 38.995 10.68C38.5417 9.29333 37.8483 8.6 36.915 8.6ZM55.1113 8.32H59.8313V9.12H55.1113V25.28C55.1113 26.08 55.2446 26.6533 55.5113 27C55.8046 27.32 56.2579 27.48 56.8713 27.48C58.0179 27.48 58.9246 26.68 59.5913 25.08L60.2713 25.44C59.2579 28.1867 57.4313 29.56 54.7913 29.56C53.0313 29.56 51.6979 29.1067 50.7913 28.2C50.2313 27.64 49.8446 26.9467 49.6313 26.12C49.4446 25.2667 49.3513 24.1067 49.3513 22.64V9.12H45.9912V8.32H49.3513V3.04C51.5646 3.04 53.4846 2.61333 55.1113 1.76V8.32ZM68.0409 8.32H72.7609V9.12H68.0409V25.28C68.0409 26.08 68.1743 26.6533 68.4409 27C68.7343 27.32 69.1876 27.48 69.8009 27.48C70.9476 27.48 71.8543 26.68 72.5209 25.08L73.2009 25.44C72.1876 28.1867 70.3609 29.56 67.7209 29.56C65.9609 29.56 64.6276 29.1067 63.7209 28.2C63.1609 27.64 62.7743 26.9467 62.5609 26.12C62.3743 25.2667 62.2809 24.1067 62.2809 22.64V9.12H58.9209V8.32H62.2809V3.04C64.4943 3.04 66.4143 2.61333 68.0409 1.76V8.32ZM90.4634 8.44C91.7968 8.44 92.8234 8.4 93.5434 8.32V9.12C92.9834 9.28 92.4768 9.62667 92.0234 10.16C91.5968 10.6667 91.1834 11.4667 90.7834 12.56L83.6234 32.68C83.0901 34.0667 82.5034 35.0133 81.8634 35.52C81.0901 36.1867 79.9301 36.52 78.3834 36.52C77.2634 36.52 76.2501 36.24 75.3434 35.68C74.4634 35.1467 74.0234 34.36 74.0234 33.32C74.0234 32.4933 74.3168 31.8267 74.9034 31.32C75.4901 30.84 76.2634 30.6 77.2234 30.6C78.1301 30.6 78.8501 30.8133 79.3834 31.24C79.9434 31.6933 80.2234 32.32 80.2234 33.12C80.2234 33.68 80.0501 34.1867 79.7034 34.64C79.3568 35.12 78.8634 35.48 78.2234 35.72C78.4101 35.7467 78.7168 35.76 79.1434 35.76C80.7968 35.76 82.0101 34.7067 82.7834 32.6L83.4234 30.68L74.9434 11.4C74.5168 10.4933 74.1034 9.89333 73.7034 9.6C73.3034 9.30667 72.8901 9.16 72.4634 9.16V8.32C74.2234 8.48 76.0501 8.56 77.9434 8.56C79.5168 8.56 81.3701 8.48 83.5034 8.32V9.16C82.6501 9.16 82.0101 9.22667 81.5834 9.36C81.1834 9.46667 80.9834 9.77333 80.9834 10.28C80.9834 10.5733 81.0768 10.9467 81.2634 11.4L86.1434 23.2L88.9034 15.52C89.3301 14.2667 89.5434 13.2 89.5434 12.32C89.5434 10.3733 88.5568 9.30667 86.5834 9.12V8.32C87.8368 8.4 89.1301 8.44 90.4634 8.44ZM117.569 14.12C121.035 14.3867 123.582 15.1867 125.209 16.52C126.835 17.8533 127.649 19.4267 127.649 21.24C127.649 23.72 126.675 25.64 124.729 27C122.782 28.3333 120.075 29 116.609 29C115.835 29 115.182 28.9867 114.649 28.96C112.889 28.9067 111.169 28.88 109.489 28.88C106.742 28.88 104.689 28.92 103.329 29V28.2C104.209 28.1467 104.849 28.04 105.249 27.88C105.675 27.72 105.955 27.4133 106.089 26.96C106.249 26.5067 106.329 25.7733 106.329 24.76V4.92C106.329 3.90666 106.249 3.17333 106.089 2.72C105.955 2.26667 105.675 1.96 105.249 1.8C104.849 1.64 104.209 1.53333 103.329 1.48V0.68C104.689 0.759999 106.715 0.799998 109.409 0.799998L113.849 0.759999C114.382 0.733332 114.995 0.719999 115.689 0.719999C118.889 0.719999 121.329 1.29333 123.009 2.44C124.715 3.58666 125.569 5.10667 125.569 7C125.569 8.54667 124.889 9.98667 123.529 11.32C122.195 12.6533 120.209 13.56 117.569 14.04V14.12ZM115.169 1.48C114.449 1.48 113.915 1.57333 113.569 1.76C113.249 1.94667 113.022 2.28 112.889 2.76C112.755 3.24 112.689 3.96 112.689 4.92V13.96H114.409C116.142 13.96 117.355 13.3733 118.049 12.2C118.742 11 119.089 9.41333 119.089 7.44C119.089 5.44 118.769 3.94667 118.129 2.96C117.515 1.97333 116.529 1.48 115.169 1.48ZM115.449 28.08C119.155 28.08 121.009 25.7467 121.009 21.08C121.009 18.9733 120.475 17.3733 119.409 16.28C118.342 15.1867 116.662 14.64 114.369 14.64H112.689V24.76C112.689 25.72 112.755 26.4267 112.889 26.88C113.022 27.3333 113.275 27.6533 113.649 27.84C114.049 28 114.649 28.08 115.449 28.08ZM149.724 24.64C149.724 25.8667 149.91 26.76 150.284 27.32C150.684 27.88 151.35 28.16 152.284 28.16V29C151.457 28.92 150.63 28.88 149.804 28.88C147.484 28.88 145.537 29.0667 143.964 29.44V25.84C142.737 28.32 140.59 29.56 137.524 29.56C135.524 29.56 134.07 29.04 133.164 28C132.737 27.4933 132.417 26.84 132.204 26.04C132.017 25.2133 131.924 24.1333 131.924 22.8V12.68C131.924 11.4533 131.724 10.56 131.324 10C130.95 9.44 130.297 9.16 129.364 9.16V8.32C130.19 8.4 131.017 8.44 131.844 8.44C134.164 8.44 136.11 8.25333 137.684 7.88V24.44C137.684 25.56 137.844 26.4 138.164 26.96C138.51 27.52 139.15 27.8 140.084 27.8C141.15 27.8 142.057 27.36 142.804 26.48C143.577 25.5733 143.964 24.4667 143.964 23.16V12.68C143.964 11.4533 143.764 10.56 143.364 10C142.99 9.44 142.337 9.16 141.404 9.16V8.32C142.257 8.4 143.084 8.44 143.884 8.44C146.204 8.44 148.15 8.25333 149.724 7.88V24.64ZM162.182 8.32H166.902V9.12H162.182V25.28C162.182 26.08 162.315 26.6533 162.582 27C162.875 27.32 163.328 27.48 163.942 27.48C165.088 27.48 165.995 26.68 166.662 25.08L167.342 25.44C166.328 28.1867 164.502 29.56 161.862 29.56C160.102 29.56 158.768 29.1067 157.862 28.2C157.302 27.64 156.915 26.9467 156.702 26.12C156.515 25.2667 156.422 24.1067 156.422 22.64V9.12H153.062V8.32H156.422V3.04C158.635 3.04 160.555 2.61333 162.182 1.76V8.32ZM175.111 8.32H179.831V9.12H175.111V25.28C175.111 26.08 175.245 26.6533 175.511 27C175.805 27.32 176.258 27.48 176.871 27.48C178.018 27.48 178.925 26.68 179.591 25.08L180.271 25.44C179.258 28.1867 177.431 29.56 174.791 29.56C173.031 29.56 171.698 29.1067 170.791 28.2C170.231 27.64 169.845 26.9467 169.631 26.12C169.445 25.2667 169.351 24.1067 169.351 22.64V9.12H165.991V8.32H169.351V3.04C171.565 3.04 173.485 2.61333 175.111 1.76V8.32ZM192.658 26.28C194.844 26.28 196.604 25.2133 197.938 23.08L198.658 23.32C198.124 25.0533 197.164 26.5333 195.778 27.76C194.418 28.96 192.711 29.56 190.658 29.56C187.831 29.56 185.578 28.6667 183.898 26.88C182.244 25.0667 181.418 22.4 181.418 18.88C181.418 15.28 182.311 12.5333 184.098 10.64C185.884 8.72 188.258 7.76 191.218 7.76C196.231 7.76 198.738 10.72 198.738 16.64H187.498C187.471 17.04 187.458 17.6667 187.458 18.52C187.458 20.28 187.698 21.7467 188.178 22.92C188.684 24.0933 189.324 24.9467 190.098 25.48C190.898 26.0133 191.751 26.28 192.658 26.28ZM190.978 8.6C190.018 8.6 189.218 9.2 188.578 10.4C187.964 11.5733 187.578 13.4 187.418 15.88H193.698C193.751 13.7733 193.538 12.04 193.058 10.68C192.604 9.29333 191.911 8.6 190.978 8.6ZM214.579 7.76C215.779 7.76 216.686 8.12 217.299 8.84C217.913 9.56 218.219 10.4267 218.219 11.44C218.219 12.4267 217.926 13.24 217.339 13.88C216.779 14.4933 216.033 14.8 215.099 14.8C214.193 14.8 213.473 14.5733 212.939 14.12C212.406 13.64 212.139 13.0133 212.139 12.24C212.139 10.96 212.726 9.92 213.899 9.12C213.793 9.09333 213.633 9.08 213.419 9.08C213.153 9.08 212.939 9.10667 212.779 9.16C211.766 9.32 210.899 9.93333 210.179 11C209.486 12.0667 209.139 13.16 209.139 14.28V24.88C209.139 26.1067 209.433 26.96 210.019 27.44C210.633 27.92 211.593 28.16 212.899 28.16V29C212.526 29 212.219 28.9867 211.979 28.96C209.259 28.88 207.446 28.84 206.539 28.84C205.819 28.84 204.179 28.88 201.619 28.96C201.406 28.9867 201.139 29 200.819 29V28.16C201.779 28.16 202.446 27.96 202.819 27.56C203.193 27.1333 203.379 26.3733 203.379 25.28V12.68C203.379 11.4533 203.193 10.56 202.819 10C202.446 9.44 201.779 9.16 200.819 9.16V8.32C201.673 8.4 202.499 8.44 203.299 8.44C205.673 8.44 207.619 8.25333 209.139 7.88V11.6C209.646 10.4533 210.379 9.53333 211.339 8.84C212.299 8.12 213.379 7.76 214.579 7.76Z" fill="white"/>
</svg>
